<svg width="158" height="83" fill="none" xmlns="http://www.w3.org/2000/svg"><g filter="url(#a)"><rect x="3" y="3" width="150" height="75" rx="6" fill="#fff"/><path d="M42.64 48.365c-.1-.2-.185-.429-.255-.689-.07-.259-.13-.534-.18-.823-.23.25-.496.484-.796.704-.3.22-.636.414-1.006.584-.36.16-.76.284-1.201.374-.44.1-.916.15-1.427.15-.83 0-1.596-.12-2.297-.36a5.46 5.46 0 0 1-1.786-1.003c-.5-.43-.891-.938-1.172-1.527a4.535 4.535 0 0 1-.42-1.947c0-1.707.636-3.025 1.907-3.953 1.281-.938 3.188-1.407 5.72-1.407h2.327v-.959c0-.778-.255-1.392-.765-1.842-.51-.459-1.247-.688-2.207-.688-.851 0-1.472.184-1.862.554-.39.359-.586.843-.586 1.452H32.46c0-.689.15-1.343.45-1.962a4.933 4.933 0 0 1 1.337-1.632c.59-.469 1.306-.838 2.147-1.108.85-.28 1.822-.419 2.913-.419.98 0 1.892.12 2.732.36.851.239 1.587.593 2.207 1.063a4.878 4.878 0 0 1 1.457 1.781c.35.71.525 1.533.525 2.471v6.948c0 .869.055 1.587.165 2.156.11.57.27 1.059.48 1.468v.254H42.64zm-3.979-2.92c.42 0 .811-.05 1.171-.15.36-.1.686-.229.976-.389.29-.16.54-.34.75-.539.211-.21.376-.419.496-.629v-2.785h-2.132c-.65 0-1.206.065-1.666.195-.46.12-.836.294-1.126.524-.29.22-.506.49-.646.809-.14.309-.21.648-.21 1.018 0 .559.195 1.023.585 1.392.4.37 1.002.554 1.802.554z" fill="#222326"/><path d="M60.748 41c0 11.87-9.65 21.5-21.561 21.5-11.912 0-21.562-9.63-21.562-21.5s9.65-21.5 21.562-21.5c11.911 0 21.561 9.63 21.561 21.5z" stroke="#222326" stroke-width="3"/><path d="M74.345 33.61h1.378c.503 0 .958-.072 1.364-.215a3.075 3.075 0 0 0 1.041-.604c.284-.253.502-.556.654-.907.157-.351.235-.734.235-1.15 0-.444-.078-.848-.235-1.212a2.666 2.666 0 0 0-.654-.939 3.076 3.076 0 0 0-1.04-.603 3.963 3.963 0 0 0-1.365-.222H72.56V37h1.784v-3.39zm0-1.447v-2.958h1.378c.254 0 .474.04.66.12.186.081.343.191.47.33.122.14.213.303.273.49.063.186.095.387.095.603 0 .186-.032.366-.096.54-.059.168-.15.319-.272.45a1.358 1.358 0 0 1-.47.31 1.737 1.737 0 0 1-.66.115h-1.378zm9.306 4.964c.664 0 1.24-.13 1.726-.387.487-.258.843-.546 1.067-.864l-.883-.952c-.203.263-.467.46-.793.59a2.679 2.679 0 0 1-1.01.197c-.245 0-.471-.038-.678-.114a1.758 1.758 0 0 1-.927-.774 2.487 2.487 0 0 1-.229-.667v-.019h4.66v-.749c0-.503-.07-.962-.21-1.377a2.996 2.996 0 0 0-.61-1.073c-.27-.296-.6-.525-.99-.686a3.325 3.325 0 0 0-1.32-.247c-.478 0-.92.087-1.327.26a3.122 3.122 0 0 0-1.053.73 3.33 3.33 0 0 0-.692 1.124c-.165.431-.248.91-.248 1.434v.254c0 .461.083.895.248 1.301.17.402.408.752.717 1.048.309.3.68.537 1.111.71.432.174.912.261 1.44.261zm-.21-5.694a1.5 1.5 0 0 1 .59.108c.174.068.32.16.439.28a1.374 1.374 0 0 1 .38.958v.14h-2.894c.042-.225.106-.428.19-.61.085-.182.19-.338.318-.47.123-.13.267-.23.431-.298.166-.072.348-.108.546-.108zm9.617-1.428c-.461 0-.887.112-1.276.336-.39.22-.723.525-1.003.914l-.012-.152-.07-.971h-1.644V37h1.764v-4.126c.08-.195.182-.364.305-.508.123-.144.27-.262.444-.355.144-.08.307-.14.49-.178.185-.042.393-.063.621-.063.22 0 .45.014.692.044.246.025.485.066.717.12l.26-1.758a3.997 3.997 0 0 0-.552-.114 4.407 4.407 0 0 0-.736-.057zm3.974.127h-1.517V37h1.606v-5.142c.02-.055.044-.105.07-.152a.523.523 0 0 1 .247-.229.56.56 0 0 1 .394-.006c.059.017.112.049.158.095a.505.505 0 0 1 .102.197c.025.085.038.193.038.324V37h1.555v-5.243a.49.49 0 0 1 .076-.12.574.574 0 0 1 .102-.102.656.656 0 0 1 .146-.07.623.623 0 0 1 .368.006.366.366 0 0 1 .165.095c.047.051.083.119.108.204.03.084.044.192.044.323V37h1.606v-4.9c0-.381-.038-.703-.114-.965a1.826 1.826 0 0 0-.305-.654 1.22 1.22 0 0 0-.476-.362 1.448 1.448 0 0 0-.577-.114c-.165 0-.318.021-.457.063a1.326 1.326 0 0 0-.622.394c-.072.08-.138.171-.197.273a1.231 1.231 0 0 0-.14-.28.888.888 0 0 0-.514-.394 1.5 1.5 0 0 0-.432-.056c-.33 0-.611.087-.844.26-.228.17-.408.402-.54.698l-.05-.831zm11 6.868h1.79v-.108a2.346 2.346 0 0 1-.203-.622 5.001 5.001 0 0 1-.07-.914v-2.945c0-.398-.074-.747-.222-1.048a2.06 2.06 0 0 0-.616-.755 2.77 2.77 0 0 0-.933-.45 4.187 4.187 0 0 0-1.155-.153c-.461 0-.872.06-1.231.178a2.76 2.76 0 0 0-.902.47c-.249.198-.44.429-.571.691-.127.263-.19.54-.19.832h1.764c0-.123.017-.235.051-.337a.682.682 0 0 1 .171-.26.835.835 0 0 1 .33-.184c.136-.046.297-.07.483-.07.211 0 .395.028.552.083.161.05.294.125.4.222a.867.867 0 0 1 .228.336c.051.127.077.271.077.432v.406h-.984c-.508 0-.959.047-1.352.14-.39.089-.718.22-.984.393-.296.19-.519.434-.667.73a2.203 2.203 0 0 0-.222 1.01c0 .296.059.57.178.825.118.25.283.465.495.647.212.182.463.324.755.426.297.101.62.152.972.152.215 0 .416-.021.603-.064a2.368 2.368 0 0 0 1.269-.704c.021.123.047.239.076.349.03.11.066.207.108.292zm-1.682-1.238c-.165 0-.311-.019-.438-.057a1.032 1.032 0 0 1-.311-.165.746.746 0 0 1-.197-.26 1.025 1.025 0 0 1 .026-.774.9.9 0 0 1 .273-.35c.122-.093.281-.165.476-.216a2.61 2.61 0 0 1 .704-.082h.902v1.18a1.29 1.29 0 0 1-.527.496 1.904 1.904 0 0 1-.908.228zM111.549 37h1.771v-4.881c.059-.093.125-.178.197-.254.072-.076.152-.142.241-.197.11-.076.235-.133.374-.171a2.153 2.153 0 0 1 1.016.006.937.937 0 0 1 .413.21.946.946 0 0 1 .26.418c.063.174.095.396.095.667V37h1.765v-4.227c0-.5-.06-.923-.178-1.27a2.3 2.3 0 0 0-.482-.863 1.91 1.91 0 0 0-.75-.483 2.842 2.842 0 0 0-.952-.152c-.271 0-.527.038-.768.114a2.39 2.39 0 0 0-1.003.616 2.673 2.673 0 0 0-.292.349l-.108-.952h-1.599V37zm11.14.127c.664 0 1.24-.13 1.727-.387.486-.258.842-.546 1.066-.864l-.882-.952c-.204.263-.468.46-.794.59a2.678 2.678 0 0 1-1.009.197c-.246 0-.472-.038-.679-.114a1.757 1.757 0 0 1-.927-.774 2.515 2.515 0 0 1-.229-.667v-.019h4.66v-.749c0-.503-.07-.962-.21-1.377a3.01 3.01 0 0 0-.609-1.073 2.736 2.736 0 0 0-.991-.686 3.323 3.323 0 0 0-1.32-.247c-.478 0-.92.087-1.326.26a3.112 3.112 0 0 0-1.054.73 3.332 3.332 0 0 0-.692 1.124c-.165.431-.248.91-.248 1.434v.254c0 .461.083.895.248 1.301.169.402.408.752.717 1.048.309.3.679.537 1.111.71.432.174.912.261 1.441.261zm-.21-5.694a1.5 1.5 0 0 1 .591.108c.173.068.319.16.438.28a1.367 1.367 0 0 1 .381.958v.14h-2.895c.042-.225.106-.428.191-.61a1.68 1.68 0 0 1 .317-.47c.123-.13.267-.23.432-.298a1.35 1.35 0 0 1 .545-.108zM127.164 37h1.771v-4.881c.059-.093.125-.178.197-.254.072-.076.152-.142.241-.197a1.21 1.21 0 0 1 .375-.171 2.153 2.153 0 0 1 1.015.006.932.932 0 0 1 .413.21.946.946 0 0 1 .26.418c.064.174.095.396.095.667V37h1.765v-4.227c0-.5-.059-.923-.178-1.27a2.3 2.3 0 0 0-.482-.863 1.914 1.914 0 0 0-.749-.483 2.846 2.846 0 0 0-.952-.152c-.271 0-.527.038-.768.114a2.382 2.382 0 0 0-1.003.616 2.524 2.524 0 0 0-.292.349l-.108-.952h-1.6V37zm11.045-8.55h-1.765v1.682h-1.568v1.301h1.568v3.123c0 .453.06.842.178 1.168a2.043 2.043 0 0 0 1.289 1.263c.309.098.651.146 1.028.146.195 0 .391-.01.59-.031.203-.017.398-.043.584-.077a4.59 4.59 0 0 0 .527-.127c.165-.055.309-.118.432-.19l-.172-1.212a6.289 6.289 0 0 1-.647.12 5.757 5.757 0 0 1-.825.07c-.186 0-.356-.021-.508-.063a.899.899 0 0 1-.381-.216.96.96 0 0 1-.247-.394 2.026 2.026 0 0 1-.083-.628v-2.952h2.564v-1.301h-2.564V28.45zM72.204 48.852v.12c0 .453.065.872.194 1.257.13.38.32.712.572.994.247.282.552.503.914.663.365.156.78.234 1.245.234.461 0 .872-.078 1.234-.234.362-.16.667-.381.914-.663.248-.282.436-.613.566-.994.13-.385.194-.804.194-1.257v-.12c0-.45-.065-.864-.194-1.245a2.895 2.895 0 0 0-.566-1 2.653 2.653 0 0 0-.92-.663 3.038 3.038 0 0 0-1.24-.24c-.464 0-.877.08-1.239.24-.358.16-.66.381-.908.663a2.847 2.847 0 0 0-.572 1c-.13.38-.194.796-.194 1.245zm1.588.12v-.12c0-.251.025-.49.075-.714.05-.225.127-.423.234-.594.106-.171.244-.307.411-.406a1.17 1.17 0 0 1 .606-.148c.24 0 .443.05.611.148.168.1.305.235.411.406.103.171.18.37.229.594.05.225.074.463.074.714v.12c0 .26-.025.503-.074.731-.05.225-.126.421-.229.589a1.197 1.197 0 0 1-.411.405 1.159 1.159 0 0 1-.6.149c-.24 0-.446-.05-.617-.148a1.198 1.198 0 0 1-.411-.406 1.813 1.813 0 0 1-.234-.589 3.448 3.448 0 0 1-.075-.73zM79.448 52h1.594v-4.393c.053-.084.112-.16.177-.229.065-.068.137-.127.217-.177.1-.068.212-.12.337-.154.13-.034.27-.051.423-.051.183 0 .347.019.491.057a.84.84 0 0 1 .372.188c.103.092.18.217.234.377.057.156.086.356.086.6V52h1.588v-3.805c0-.45-.054-.83-.16-1.142a2.067 2.067 0 0 0-.434-.777 1.713 1.713 0 0 0-.675-.434 2.56 2.56 0 0 0-.856-.138c-.244 0-.475.035-.692.103a2.153 2.153 0 0 0-.902.554c-.096.096-.183.2-.263.315l-.097-.857h-1.44V52zm18.087-1.737L98.021 52h1.69l-2.673-8.318h-1.457L92.856 52h1.691l.492-1.737h2.496zm-2.102-1.365.874-3.062.851 3.062h-1.725zm9.535-3.194c-.416 0-.798.101-1.149.303-.35.198-.651.472-.902.823l-.012-.137-.063-.874h-1.479V52h1.588v-3.713c.072-.176.164-.328.274-.457.111-.13.244-.236.4-.32.13-.073.276-.126.44-.16.168-.038.354-.057.56-.057.198 0 .405.013.623.04.22.022.436.059.645.108l.234-1.582a3.572 3.572 0 0 0-.497-.103 3.958 3.958 0 0 0-.662-.052zM108.013 52h1.393l.657-3.302.126-.629.132.629L111 52h1.394l1.109-6.181h-1.457l-.457 3.645-.08.6-.109-.59-.668-3.655h-1.063l-.668 3.673-.109.589-.074-.589-.463-3.673h-1.451L108.013 52zm9.569.114c.598 0 1.116-.116 1.554-.348.438-.233.757-.491.959-.777l-.794-.857a1.676 1.676 0 0 1-.714.531 2.409 2.409 0 0 1-.908.177c-.221 0-.425-.034-.612-.103a1.594 1.594 0 0 1-.834-.697 2.255 2.255 0 0 1-.205-.6v-.017h4.193v-.674c0-.453-.063-.866-.189-1.24a2.685 2.685 0 0 0-.548-.965 2.468 2.468 0 0 0-.891-.617 2.995 2.995 0 0 0-1.188-.223c-.431 0-.829.078-1.194.235a2.812 2.812 0 0 0-.949.657 3.012 3.012 0 0 0-.623 1.01 3.6 3.6 0 0 0-.222 1.292v.228c0 .416.074.806.222 1.172.153.361.368.676.646.942.278.27.611.484 1 .64.388.156.821.234 1.297.234zm-.189-5.124c.202 0 .379.032.531.097.157.06.288.145.395.251a1.23 1.23 0 0 1 .342.863v.126h-2.605c.038-.202.096-.385.172-.549.076-.164.171-.304.285-.423a1.214 1.214 0 0 1 .88-.366zm8.078 5.01h1.611v-.097a2.105 2.105 0 0 1-.183-.56 4.46 4.46 0 0 1-.062-.823v-2.65a2.11 2.11 0 0 0-.2-.943 1.86 1.86 0 0 0-.555-.68 2.5 2.5 0 0 0-.839-.405 3.776 3.776 0 0 0-1.04-.138c-.415 0-.785.054-1.108.16-.32.103-.591.244-.812.423a1.861 1.861 0 0 0-.514.623 1.7 1.7 0 0 0-.171.748h1.588c0-.11.015-.211.046-.303a.605.605 0 0 1 .154-.234.744.744 0 0 1 .297-.166c.122-.041.267-.062.434-.062.191 0 .356.024.497.074a.938.938 0 0 1 .36.2.79.79 0 0 1 .206.303c.045.114.068.243.068.388v.366h-.885c-.457 0-.863.042-1.217.126a2.73 2.73 0 0 0-.886.354c-.266.171-.466.39-.599.657-.134.262-.2.565-.2.908 0 .267.053.514.16.743.106.224.255.419.445.582.191.164.417.292.68.383.267.092.558.137.874.137.194 0 .375-.019.543-.057a2.137 2.137 0 0 0 1.142-.634c.02.11.042.215.069.314.027.1.059.187.097.263zm-1.514-1.114c-.148 0-.28-.017-.394-.051a.931.931 0 0 1-.28-.149.673.673 0 0 1-.177-.234.938.938 0 0 1 .023-.697.807.807 0 0 1 .246-.314c.11-.084.253-.149.428-.195.175-.05.387-.074.634-.074h.811v1.063c-.045.08-.108.16-.188.24-.08.076-.175.144-.286.205a1.705 1.705 0 0 1-.817.206zM130.601 52h1.491l2.348-6.181h-1.656l-1.354 4.359-.086.434-.086-.434-1.359-4.36h-1.657L130.601 52zm8.061.114c.598 0 1.116-.116 1.554-.348.438-.233.758-.491.96-.777l-.794-.857a1.676 1.676 0 0 1-.714.531 2.414 2.414 0 0 1-.909.177 1.76 1.76 0 0 1-.611-.103 1.582 1.582 0 0 1-.834-.697 2.253 2.253 0 0 1-.206-.6v-.017h4.194v-.674c0-.453-.063-.866-.189-1.24a2.7 2.7 0 0 0-.548-.965 2.463 2.463 0 0 0-.892-.617 2.988 2.988 0 0 0-1.188-.223c-.43 0-.828.078-1.194.235a2.798 2.798 0 0 0-.948.657 2.997 2.997 0 0 0-.623 1.01 3.6 3.6 0 0 0-.223 1.292v.228c0 .416.075.806.223 1.172.152.361.368.676.646.942.278.27.611.484.999.64a3.45 3.45 0 0 0 1.297.234zm-.188-5.124c.202 0 .379.032.531.097.156.06.288.145.394.251.107.11.191.24.252.389.06.148.091.306.091.474v.126h-2.605c.038-.202.095-.385.171-.549.076-.164.172-.304.286-.423.11-.118.24-.207.388-.268.149-.065.313-.097.492-.097z" fill="#222326"/><rect x="3.5" y="3.5" width="149" height="74" rx="5.5" stroke="#000"/></g><defs><filter id="a" x="0" y="0" width="158" height="83" filterUnits="userSpaceOnUse" color-interpolation-filters="sRGB"><feFlood flood-opacity="0" result="BackgroundImageFix"/><feColorMatrix in="SourceAlpha" values="0 0 0 0 0 0 0 0 0 0 0 0 0 0 0 0 0 0 127 0" result="hardAlpha"/><feOffset dx="1" dy="1"/><feGaussianBlur stdDeviation="2"/><feComposite in2="hardAlpha" operator="out"/><feColorMatrix values="0 0 0 0 0 0 0 0 0 0 0 0 0 0 0 0 0 0 0.25 0"/><feBlend in2="BackgroundImageFix" result="effect1_dropShadow_1_30"/><feBlend in="SourceGraphic" in2="effect1_dropShadow_1_30" result="shape"/></filter></defs></svg>